<?xml version="1.0" encoding="utf-8"?>
<svg viewBox="0 0 24 24" xmlns="http://www.w3.org/2000/svg" fill="none">
  <title>NativeWind</title>
  <path d="M4 14.5c2.1-2.7 4.1-3.8 6.1-3.3 1.1.3 1.9 1 2.7 1.6.9.7 1.7 1.4 2.9 1.6 1.4.2 2.8-.3 4.3-1.6" stroke="#3b82f6" stroke-width="1.8" stroke-linecap="round"/>
  <path d="M4.6 10.2c1.5-2 3-2.8 4.7-2.5.9.2 1.6.7 2.3 1.2.8.6 1.6 1.2 2.7 1.3 1.1.1 2.2-.3 3.6-1.4" stroke="#3b82f6" stroke-width="1.8" stroke-linecap="round" opacity=".9"/>
  <path d="M5.1 18.1c1.2-1.4 2.4-2 3.7-1.8.7.1 1.3.5 1.9.9.7.5 1.4 1 2.3 1.1 1 .1 2-.3 3.2-1.2" stroke="#3b82f6" stroke-width="1.8" stroke-linecap="round" opacity=".75"/>
</svg>
